<svg xmlns="http://www.w3.org/2000/svg" viewBox="0 0 1191.21 566.3">
  <defs>
    <style>
      .cls-1 {
        fill: #ca611f;
      }

      .cls-2 {
        fill: #498038;
      }
    </style>
  </defs>
  <g id="CÃMBIATE">
    <path class="cls-1" d="M427.92,539.12H1c-1-3.59-1.34-6.33,3.64-6.2,1.21,0,2.42,0,3.64,0q206.19,0,412.38.05C424.19,533,429.91,531,427.92,539.12Z"/>
    <path class="cls-1" d="M762.24,537.08A62.31,62.31,0,0,1,767.5,533c.7-.44,1.9-.08,2.87-.08q206.55,0,413.1.05c3.6,0,9.19-1.68,6.9,6.07H763.65Z"/>
    <g>
      <path class="cls-2" d="M566.11,2.61Q511.18,27.74,456.24,52.87C438.35,61,420.37,69,402.59,77.43c-3.93,1.86-7.16,5.17-10.72,7.81l.5,2.7c4.76,1,9.51,2.86,14.3,3,19.91.38,39.84.24,59.77.29,2.56,0,5.12,0,7.68,0,.19.77.39,1.53.59,2.29L302,173.39c0,6.29,3.73,6.62,7.9,6.62q35-.06,70,0h7.73l.62,2.08c-2.35,1.24-4.65,2.6-7.06,3.71q-81.27,37.64-162.51,75.32c-2.37,1.1-4,3.8-6,5.75,2.65,1.15,5.29,3.25,8,3.28,22.59.27,45.19.13,67.79.19,2.75,0,5.51.54,8.26.82l.63,2.55L118.57,355.75c-.45-6.73-1.15-12.21-1.15-17.69q-.09-160.89,0-321.77c0-2.42.14-4.85.32-7.26.37-5,2.74-8.11,8.16-8.28,3.64-.11,7.27-.62,10.9-.62Q344.16,0,551.55,0c4.82,0,9.64.6,14.46.92Z"/>
      <path class="cls-2" d="M1072.71,355.86,893.58,274.09l.27-2.39a48.22,48.22,0,0,1,6.9-1c21.87-.08,43.74-.05,65.6-.05,1.95,0,4,.31,5.81-.16s3.16-1.74,4.73-2.66c-.89-1.51-1.43-3.56-2.74-4.43A100.22,100.22,0,0,0,961,255.76q-75-34.62-150.18-69a25.92,25.92,0,0,1-9-6.34H843c12.88,0,25.76.16,38.63-.14,2.72-.06,5.4-1.83,8.1-2.81-2.1-2.18-3.8-5.21-6.35-6.4q-80.5-37.41-161.19-74.45a14.51,14.51,0,0,1-6.5-5.07c2.25-.2,4.5-.57,6.75-.57,20.17,0,40.34.23,60.5-.11,5.05-.08,10.07-2,15.11-3.13.23-1,.47-2,.7-3-3.74-2.58-7.2-5.75-11.26-7.63-39.89-18.44-80-36.53-119.82-55A289.09,289.09,0,0,1,629.2.67C632.91.44,636.61,0,640.31,0Q793.39,0,946.46.16c35,0,70-.06,105,.06,22.06.08,22,.21,22.06,22.23q.08,157.6.13,315.21C1073.62,343.19,1073.08,348.73,1072.71,355.86Z"/>
      <path class="cls-2" d="M621.42,395.81c8.09,0,14.06.11,20,0,6.55-.14,13.1-.62,19.65-.68,1.37,0,2.75,1.17,4.13,1.8-.89.89-1.7,2.47-2.67,2.57-8.52,1-8,5.57-5.56,11.86,5.38,14,10.31,28.26,15.48,42.38a13.85,13.85,0,0,0,4.8,6.77q11.84-33.24,23.66-66.49l3-.23,25.74,66.59,1.88,0c2-5.57,4-11.13,5.93-16.72q5.5-15.77,11-31.56c3.19-9.3,3-9.48-6.26-12.62-1-.33-1.71-1.32-4.21-3.33h32.45a15.61,15.61,0,0,1,0,2.25c-10.17,1.68-12.46,9.83-15.28,17.91-8.29,23.78-16.86,47.45-25.37,71.15-.94,2.62-2.23,5.11-3.35,7.66l-2.62.45q-12.66-33.52-25.34-67l-2.1-.13q-11.93,33.41-23.84,66.82l-2,.08A71.26,71.26,0,0,1,666.8,488c-9.86-25.81-19.71-51.63-29.36-77.52-2.17-5.81-4.71-10.6-11.8-11.05C624.66,399.4,623.77,397.91,621.42,395.81Z"/>
      <path class="cls-2" d="M307.39,395.88c6.91,0,12.13,0,17.34,0,12.86,0,25.73-.16,38.58.18,27.62.73,47.55,21.32,47.36,48.59s-19.52,47.48-46.82,48.42c-17.21.6-34.43.67-51.65.92a20.06,20.06,0,0,1-3.94-.84c1-1.31,1.39-2.52,2-2.62,9.14-1.5,10-7.62,9.88-15.46-.4-20.59-.33-41.19,0-61.78.11-7.27-.54-13.13-9.51-13.92C309.8,399.3,309.13,397.83,307.39,395.88Zm42.1,6.44c-3.42,1.73-11.27-4.15-11.35,5.5-.2,23.71,0,47.43-.09,71.14,0,4.66,2.12,7.39,6.68,7.91,20.36,2.29,41.48-4.13,45.3-30.64a72.38,72.38,0,0,0,.47-15.91C388.46,415.07,375.5,403,349.49,402.32Z"/>
      <path class="cls-2" d="M1007.69,396.28c1.2-.36,2.45-1.07,3.68-1,16.52.19,33,.37,49.54.77,28.55.7,48.17,20.52,48.22,48.52s-19.59,47.89-48.15,48.64c-16.51.43-33,.58-49.54.81a24.57,24.57,0,0,1-4-.68c.77-1.34,1.09-2.63,1.62-2.72,9.74-1.63,10-8.56,9.91-16.36-.27-20.38-.23-40.77,0-61.15.07-6.93-.7-12.7-9.21-13.63-.59-.06-1.2-.71-1.64-1.22C1007.83,397.89,1007.89,397.3,1007.69,396.28Zm40.35,6.06c-3.64,1.47-11.43-4-11.38,6.27q.19,34.86,0,69.71c0,5.34,2.28,8.28,7.51,8.71,21.14,1.76,40.9-4.87,44.53-30.89C1092.43,429.35,1084,402.05,1048,402.34Z"/>
      <path class="cls-2" d="M892.31,444.61c.08-28.46,22.31-50.56,50.87-50.57,29.63,0,51.14,21.48,51,50.92-.16,28.3-22.67,50.2-51.45,50.07C913.1,494.89,892.23,474,892.31,444.61Zm18.09-6.79c2.84,11.11,4.49,21.7,8.31,31.45,5.3,13.54,16.87,20.57,28.63,19.5s22-10.12,25.29-23.91A66.78,66.78,0,0,0,967,417.54a34.45,34.45,0,0,0-7.62-9.6c-13.08-11.75-32.69-9.19-41.2,6.13C914.2,421.18,912.93,429.78,910.4,437.82Z"/>
      <path class="cls-2" d="M157.57,495c-29.57.18-50.89-20.75-51-50.06-.1-28.44,22.2-50.82,50.75-50.91,29.37-.1,51,21.17,51.07,50.19C208.45,472.82,186.39,494.86,157.57,495Zm-32.46-56.84c1.34,12.67,3.55,24.49,9.87,35.2,5.82,9.86,14.26,16.12,26.17,15.31,12.22-.84,20.39-8.25,24.11-19.31,6.71-19.91,4.79-39.54-7.39-56.85-12.45-17.71-37.69-15.26-47,4.28C127.74,423.36,127,431,125.11,438.18Z"/>
      <path class="cls-2" d="M828.7,495c-29.31-.11-50.94-21.63-50.68-50.45a50.63,50.63,0,0,1,51.19-50.52c29.56,0,51.43,21.83,51.11,50.93C880,473.19,857.38,495.12,828.7,495Zm31.77-43.65c-.71-13-1.91-26.05-9.69-37.36-12.64-18.37-37.2-17.55-48,1.56-9.93,17.54-4.5,52.31,10.29,65.91,11.35,10.44,27.29,9.71,37.62-1.75C857.9,471.7,860,461.88,860.47,451.37Z"/>
      <path class="cls-2" d="M535.59,418.89v30.32c0,9.7.2,19.41-.07,29.1-.17,6.09,1.21,10.5,8.12,11.46,1.1.15,2,1.53,4.47,3.48H517.3c.39-1.11.51-2.23.84-2.29,9.93-1.91,10.14-9,10-17.08-.37-18.18,0-36.38-.16-54.57-.06-8.68,3.43-19.18-11.63-21.12.46-.64.91-1.29,1.36-1.93,1.56-.35,3.1-.84,4.67-1,15.68-1.92,26.68,4,35.49,17.56,9.33,14.38,21.1,27.18,31.83,40.66a19.7,19.7,0,0,0,7.14,6V436.7c0-8.25-.38-16.52.11-24.73.44-7.28-1.7-11.81-9.5-12.49a3.65,3.65,0,0,1-1.82-1c-.31-.28-.34-.86-.81-2.2h29.94a8.37,8.37,0,0,1-.11,1.5c-11.25,3.15-10,12.06-9.88,20.72.19,22.56.06,45.12.06,67.67V494l-2.09,1.72c-2.73-2-6.05-3.53-8.09-6.08-17.6-22-35-44.11-52.42-66.18-1.45-1.84-3.05-3.57-4.58-5.35Z"/>
      <path class="cls-2" d="M98.47,451.93c-1.47,2.09-2,3.66-2.74,3.78-8.12,1.3-8.81,6.9-8.46,13.52a108.12,108.12,0,0,1-.17,17.45c-.24,2.15-2.86,5.68-4.55,5.77-15.21.82-30.68,2.78-45.65,1C16.22,490.91,5.35,477.93,1.06,455.9c-5.3-27.27,9.75-53.7,34.78-60.1,15.44-3.95,30.9-1.37,46.14,2a5.85,5.85,0,0,1,3.52,3.84A74.43,74.43,0,0,1,87,421.16c-1.37-1.35-3.34-2.45-4-4.09-4.5-11.15-13.3-15.35-24.61-16.07-13.27-.86-24.62,2.42-32,14.41-10.11,16.47-8.17,45.61,4,60.66,8.4,10.36,19.62,13.66,32.51,12.57,4.54-.39,7.15-2.38,6.79-7.41a82.9,82.9,0,0,1,0-10.92c.45-7.3-1-13.13-9.68-14.18a33.09,33.09,0,0,1-4.8-1.29l2.43-2.91Z"/>
      <path class="cls-2" d="M422.61,396.27c3.59-.58,5.24-1.08,6.9-1.09,20.12-.15,40.25-.14,60.38-.4,4.1-.06,6.31,1,6.84,5.39.7,5.8,1.93,11.54,2.93,17.3l-1.92.83a53.06,53.06,0,0,1-4.21-5.88c-3.68-6.87-9.18-10.34-17.08-10.13q-8.37.22-16.75-.05c-3.76-.11-5.18,1.45-5.12,5.16.14,9,.16,18,0,26.92-.08,4,1.3,5.84,5.45,5.55a50.9,50.9,0,0,1,8.73,0c7.87.77,14.18-.38,14.62-10.21,0-.62,1.28-1.19,3.14-2.79v32.05c-1.88-1.52-2.76-1.94-3.19-2.63-1.93-3.14-3.31-8.67-5.66-9.1-6.78-1.23-13.95-.54-20.94-.21-.75,0-2,2.62-2,4-.17,9.7-.29,19.41.09,29.09.08,1.93,2.07,5.06,3.69,5.44,10.22,2.38,20.86,4.14,30.52-1.09,4.14-2.25,6.73-7.3,10.1-11,1.25-1.38,2.71-2.56,4.08-3.84l1.74,1.05c-1.69,6.91-3.14,13.89-5.25,20.67-.41,1.32-3.33,2.64-5.11,2.65-22.07.15-44.15.07-66.23,0-1.22,0-2.45-.76-4-1.27.72-1.1,1-2.11,1.48-2.17,11-1.45,10.88-9.14,10.73-17.68q-.57-30.18,0-60.37c.13-7-1.25-11.86-9.1-12.86C426.39,399.48,425.41,398.24,422.61,396.27Z"/>
      <path class="cls-2" d="M1183.78,420.34c-1.68-2.41-3.53-4.72-5-7.25a24.8,24.8,0,0,0-31.49-10.55c-10.62,4.6-12.55,17.24-3.1,23.87,5.47,3.83,12.06,6.08,18.17,9,4.81,2.28,9.88,4.11,14.45,6.8,11.37,6.68,16,16.68,13.9,28.75-2.18,12.37-11,21.28-23.87,23.3-12.2,1.91-24.32,1.06-35.77-3.83-2.27-1-4.45-4.11-5-6.64-1.44-6-1.92-12.33-2.78-18.52l1.89-1.45c1.74,2.09,4,3.92,5.13,6.3,6.59,14.28,14,19.45,27.85,18.9,8.85-.35,14.63-4.69,16.66-12.5,1.94-7.49-.54-14-8.31-18.32-6.54-3.61-13.74-6.05-20.65-9-14.89-6.35-20.6-14.12-20.31-27.7s9.29-25.31,23.28-26.37c10.37-.79,21,1.75,31.5,3.14,1.58.21,4,2,4.19,3.39,1,5.8,1.36,11.72,2,17.59Z"/>
      <path class="cls-2" d="M221.41,492.33c1.63-1.15,2.76-2.59,4.08-2.78,7.12-1,8.65-5.39,8.57-11.89-.26-22.3-.21-44.6,0-66.91,0-5.75-1-10-7.56-11.15-1.09-.19-2-1.57-2.95-2.4,1.28-.72,2.55-2.05,3.84-2.06,10.9-.14,21.81-.08,32.72.07,1.21,0,2.41,1,3.61,1.55-1,1-2,2.66-3.15,2.87-6.84,1.19-8.8,5.14-8.69,11.82q.51,32.73,0,65.45c-.11,6.55,2.52,9.55,8.63,9.86a177.64,177.64,0,0,0,18.16.36c7.74-.39,11.85-5.66,15-12.15,1-2,2.9-3.58,4.39-5.35l2.1,1.34c-1.07,6.85-2,13.74-3.41,20.5-.24,1.16-2.93,2.54-4.5,2.55-22.8.11-45.6,0-68.4-.11C223.24,493.9,222.69,493.2,221.41,492.33Z"/>
      <path class="cls-2" d="M620.2,511.7c15.52-.11,27.38,11.53,27.42,26.92a26.69,26.69,0,0,1-26.53,27c-15.62.2-27.43-11.15-27.58-26.53C593.35,523.45,604.68,511.81,620.2,511.7Zm23.26,26.63a23,23,0,1,0-22.86,23.38A23,23,0,0,0,643.46,538.33Z"/>
      <path class="cls-2" d="M707.44,538.88c-.08,15.4-11.81,26.89-27.36,26.79-15.29-.1-26.79-12-26.61-27.53.17-15.11,11.75-26.45,27-26.45C696,511.69,707.52,523.33,707.44,538.88Zm-4-.45a23,23,0,1,0-23,23.28A23.15,23.15,0,0,0,703.46,538.43Z"/>
      <path class="cls-2" d="M583.26,565.33a79.19,79.19,0,0,1-.94-8.36c-.12-14.5-.07-14.5-14.85-14.5-2.67,0-5.36.2-8,0-5.18-.45-6.91,2-6.71,6.88.21,5.2,0,10.41,0,17-4.67-5.26-5.19-48.19,0-54.11,0,5.53,0,11.07,0,16.6,0,9.76,0,9.76,9.57,9.8,19.8.08,19.78.08,19.95-19.58a63.89,63.89,0,0,1,.79-7l2.21.18v52.9Z"/>
      <path class="cls-2" d="M481.71,519.66c-6.93-1.29-12.91-3.11-18.91-3.14-2.25,0-6,3.89-6.37,6.39-.32,2.32,2.45,6,4.85,7.54,3.79,2.44,8.5,3.43,12.67,5.34,8.24,3.78,11.36,9.5,9.77,17.32-1.47,7.18-8.43,12.45-16.58,12.56-8.53.1-14.39-3.36-18-12.1a68.55,68.55,0,0,1,6.64,3.82c6.4,4.86,13.09,5.51,18.84,1.65,7.21-4.84,7.4-13.25,0-17.77-3.86-2.36-8.42-3.57-12.65-5.36-8.09-3.43-11.87-8.31-10.65-13.64,1.47-6.38,8.31-11.31,16.28-10.68,3.91.32,7.87,2,11.44,3.83C480.57,516.2,481.2,518.79,481.71,519.66Z"/>
      <path class="cls-2" d="M538.87,523.41c-21.29-9.79-30.13-9.35-38,1.5A22.92,22.92,0,0,0,502,553.77c8.6,9.64,18.75,9.67,36.35.11.21,5.87-6.64,11-15.71,11.71-15.83,1.27-28-8.25-30.33-23.81-2-13.25,7.92-27.12,21.21-29.61C525.31,509.94,536.62,514.65,538.87,523.41Z"/>
      <path class="cls-2" d="M743.87,565.53c-8.57,0-17.15.12-25.71-.15-1,0-2.77-2.24-2.78-3.45-.1-16,0-32,.21-48,0-.52.85-1,2.43-2.85.74,3.31,1.65,5.55,1.67,7.8.15,11.88.37,23.78-.05,35.65-.21,6,2,7.69,7.59,7.33s11.21-.09,16.82-.09Z"/>
    </g>
  </g>
</svg>
